<svg height="78" viewBox="0 0 78 78" width="78" xmlns="http://www.w3.org/2000/svg"><g fill="#141414" transform="translate(11 10)"><path d="m50.0664627 34.9487179v8.4155475c0 .5854293-.2611338 1.1708587-.6884435 1.561145-.4510493.4146791-1.0207956.6342152-1.6380209.6342152h-12.6056385c-1.044535-.0243929-2.1128095.1463573-3.1098656.5122507-.7359224.2683218-1.4006266.6830009-1.9703729 1.2196445-.6409647.5610365-1.1632322 1.2684304-1.5668026 2.02461-.4035703-.7561796-.9258378-1.4391806-1.5668025-2.0002171-.5934858-.5122507-1.2581899-.9269298-1.9703729-1.2196445-.9970561-.3658934-2.0415911-.5366436-3.1098656-.5122507h-12.62937797c-.59348581 0-1.18697162-.243929-1.6142814-.6586081-.42730978-.3902863-.68844354-.9757157-.68844354-1.561145v-8.4155475h-6.90817479v8.4155475c0 1.2928232.21365489 2.5612535.6647041 3.7565052.42730979 1.122073 1.06827446 2.1465744 1.92289402 3.0003256.83088013.8293583 1.82793628 1.4879663 2.91995017 1.9270384 1.16323218.4634649 2.39768266.658608 3.63213314.6342151h12.62937797c1.1394928 0 2.3739432.0487858 2.635077.5854294.4273098.8293583.6409647 2.1221816.6409647 3.8540768v.8781441h6.9081748v-.8781441c0-1.7318952.2136548-3.0247185.6409646-3.8540768.2611338-.5366436 1.4955843-.5854294 2.635077-.5854294h12.629378c1.2344505.0243929 2.4689009-.1707502 3.6083937-.6342151 1.0920139-.4390721 2.0653306-1.0976801 2.9199502-1.9270384.8546195-.8537512 1.5193236-1.8538597 1.9466334-3.0003256.4510492-1.1952517.6884435-2.4880749.6647041-3.7565052v-8.4155475z"/><path d="m32.571429 22.307692h11.844156v12.641026h-11.844156z"/><path d="m11.844156 22.307692h11.844156v12.641026h-11.844156z"/><path d="m56.3334141 10.8548365c-.4274756-1.12207297-1.0686891-2.14657439-1.9236404-3.00032558-.8312027-.82935829-1.8286459-1.48796635-2.9210837-1.92703839-1.1636838-.46346493-2.3986134-.65860806-3.6335431-.63421517h-12.6342807c-1.1399351 0-2.3748648-.04878578-2.6360999-.58542939-.403727-.82935829-.6174648-2.12218152-.6174648-3.85407678v-.85375119h-6.9108566v.87814408c0 1.73189526-.2137378 3.02471849-.6412135 3.85407679-.2612351.5366436-1.4961648.58542938-2.6360999.58542938h-12.63428062c-1.23492969-.02439289-2.46985937.17075024-3.60979447.63421517-1.0924378.43907204-2.08988101 1.0976801-2.92108368 1.92703839-.83120268.85375119-1.49616482 1.85385972-1.92364048 3.00032559-.47497296 1.1952517-.71245943 2.463682-.68871079 3.7565052v8.4155475h6.91085653v-8.4155475c0-.5854293.26123512-1.1708587.68871078-1.561145.45122431-.4146791 1.02119186-.6586081 1.6386567-.6586081h12.61053203c1.0449405.0243929 2.1136296-.1463573 3.1110728-.4878578.7362081-.2683218 1.4011703-.6830009 1.9711378-1.2196445.6412135-.5610365 1.1636838-1.24403747 1.5674119-2.02460998.4037259.75617962.9261961 1.43918058 1.5674096 2.00021708.5937162.5122507 1.2586784.9269298 1.9711378 1.2196445.9974432.3658934 2.0423837.5366436 3.0873242.5122507h12.6342807c.5937162 0 1.1874324.243929 1.614908.6586081.4512243.3902863.6887108.9757157.6887108 1.561145v8.4155475h6.9346052v-8.4155475c.0237486-1.2928232-.2137378-2.5612535-.6649622-3.7808981z"/></g></svg>