<svg xmlns="http://www.w3.org/2000/svg" viewBox="0 0 40 30"><path d="M30.3.1c-2.8 0-5.4 1.2-7.1 3.2L10.5 16l-3.6-3.6c-.6-.7-1-1.6-1-2.5C5.9 7.7 7.6 6 9.8 6c1 0 1.8.3 2.5 1l.4.4.5.5 3.1-3.1.9-.9-.8-.8-.3-.3C14.3 1 12 .1 9.5.1 4.3.1 0 4.3 0 9.5c0 2.4.9 4.6 2.3 6.3l8.1 8.2 17-17c.7-.6 1.6-1 2.5-1 2.1 0 3.8 1.7 3.8 3.8 0 1-.3 1.8-1 2.5L21.6 23.6c-.4.5-1.1.7-1.7.7-.7 0-1.3-.3-1.7-.7l-.9-.8-4 4 .8.8c1.5 1.5 3.5 2.4 5.7 2.4s4.2-.9 5.7-2.4l11.8-11.8c1.4-1.6 2.3-3.9 2.3-6.3.2-5.2-4.1-9.4-9.3-9.4z" fill="#0af"/></svg>