<svg width="123" height="140" viewBox="0 0 123 140" xmlns="http://www.w3.org/2000/svg"><g fill="none"><path d="M107.4 27.2c-.1-.7-.7-1.1-1.2-1.1S95 25.3 95 25.3s-7.4-7.4-8.3-8.2c-.8-.8-2.4-.6-3-.4-.1 0-1.6.5-4.2 1.3C77 10.7 72.6 4.1 64.9 4.1h-.7C62.1 1.3 59.3 0 57 0 39 0 30.4 22.5 27.7 33.9c-7 2.2-12 3.7-12.6 3.9-3.9 1.2-4 1.3-4.5 5C10.2 45.6 0 124.6 0 124.6l79.5 14.9 43.1-9.3c0-.1-15.1-102.3-15.2-103zm-32.3-8c-2 .6-4.3 1.3-6.7 2.1v-1.5c0-4.4-.6-8-1.6-10.9 4 .6 6.6 5.1 8.3 10.3zM61.8 9.9c1.1 2.8 1.8 6.7 1.8 12.1v.8c-4.4 1.4-9.1 2.8-13.9 4.3 2.7-10.3 7.8-15.3 12.1-17.2zm-5.3-5.1c.8 0 1.6.3 2.3.8-5.8 2.7-11.9 9.5-14.5 23.2-3.8 1.2-7.5 2.3-11 3.4 3-10.4 10.3-27.4 23.2-27.4z" fill="#95BF47"/><path d="M106.2 26c-.5 0-11.2-.8-11.2-.8s-7.4-7.4-8.3-8.2c-.3-.3-.7-.5-1.1-.5l-6 123 43.1-9.3s-15.1-102.3-15.2-103c-.2-.7-.8-1.1-1.3-1.2z" fill="#5E8E3E"/><path d="M64.9 49.8l-5.3 15.8s-4.7-2.5-10.4-2.5c-8.4 0-8.8 5.3-8.8 6.6 0 7.2 18.8 10 18.8 26.9 0 13.3-8.4 21.9-19.8 21.9-13.7 0-20.6-8.5-20.6-8.5l3.7-12.1s7.2 6.2 13.2 6.2c4 0 5.6-3.1 5.6-5.4 0-9.4-15.4-9.8-15.4-25.3 0-13 9.3-25.6 28.2-25.6 7.2-.1 10.8 2 10.8 2z" fill="#FFF"/></g></svg>