<svg xmlns="http://www.w3.org/2000/svg" viewBox="0 0 141.732 141.747"><path fill="#0071CE" d="M115.585 109.242a3.826 3.826 0 0 1-1.188-7.463c7.278-2.382 11.98-8.761 11.98-16.252 0-9.487-7.718-17.206-17.205-17.206-.659 0-1.368.052-2.231.164l-3.741.485-.537-3.735c-2.299-16.016-16.251-28.094-32.454-28.094-13.395 0-25.32 8.019-30.377 20.43l-.952 2.335-2.52.046c-11.581.213-21.003 9.804-21.003 21.379 0 8.45 4.906 16.156 12.498 19.631a3.826 3.826 0 0 1-3.184 6.958C14.363 103.202 7.703 92.766 7.703 81.331c0-14.88 11.465-27.345 26.028-28.876 6.71-14.03 20.773-22.965 36.477-22.965 18.796 0 35.135 13.178 39.372 31.184 13.519.219 24.45 11.284 24.45 24.854 0 10.693-6.934 20.146-17.253 23.523a3.837 3.837 0 0 1-1.192.191z"/><path fill="#DC8327" d="M57.12 111.02l-.002-.001-.003-.001h-.001l-.001-.001-.001-.001-.001-.001h-.001l-.001-.001c.001-.001-.001-.001-.001-.001l-.001-.001h-.001l-.001-.001-.001-.001-.003-.001-.001-.001-.001-.001-.001-.001-.003-.001c-.001.001-.001-.001-.002-.001l-.001-.001-.002-.001-.001-.001-.004-.001-.004-.001-.002-.001h-.001l-.003-.001-.003-.001h-.001l-.002-.001-.001-.001h-.001a.647.647 0 0 0-.188-.037h-.006-.001-.002l-.001-.001H56.859h.001-.008a3.028 3.028 0 0 1-3.021-3V74.29h2.58c.393.017.661-.285.661-.648a.648.648 0 0 0-.402-.6l-12.379-8.544a.65.65 0 0 0-.737 0l-12.476 8.611a.65.65 0 0 0 .368 1.182h2.58l.002 33.674c.013 2.328 1.883 4.228 4.262 4.288a.716.716 0 0 0 .08.005h18.492a.649.649 0 0 0 .438-.18l.001-.001.005-.005.003-.003.001-.001.001-.001.001-.001.001-.001.001-.001.001-.001.002-.002.001-.001.001-.001.001-.001a.647.647 0 0 0 .183-.447v-.01a.654.654 0 0 0-.383-.581z"/><path fill="#F4B21B" d="M83.889 111.02l-.002-.001-.003-.001h-.001l-.001-.001-.001-.001h-.001l-.001-.001-.001-.001c.001-.001-.001-.001-.002-.001l-.001-.001h-.001l-.001-.001c-.002.001-.002-.001-.002-.001l-.002-.001-.001-.001h-.001l-.001-.001-.001-.001-.002-.001c-.001.001-.001-.001-.003-.001l-.001-.001-.001-.001-.002-.001-.004-.001-.004-.001-.002-.001-.002-.001-.002-.001-.002-.001c-.003 0-.001 0-.002-.001l-.002-.001-.001-.001h-.001a.647.647 0 0 0-.188-.037h-.005-.003l-.001-.001H83.628h-.003-.008a3.028 3.028 0 0 1-3.02-3V81.829h2.579a.648.648 0 0 0 .272-1.248l-12.38-8.544a.65.65 0 0 0-.737 0l-12.471 8.61a.65.65 0 0 0 .368 1.182h2.568l.002 26.135c.011 2.329 1.884 4.23 4.264 4.289a.68.68 0 0 0 .078.004h18.492a.649.649 0 0 0 .438-.18l.001-.001c.002-.002.006-.004.005-.005l.003-.003.001-.001.001-.001.001-.001.001-.001.001-.001.001-.001c.003-.001.002-.001.002-.002l.001-.001.001-.001.001-.001a.647.647 0 0 0 .183-.447v-.01a.656.656 0 0 0-.384-.58z"/><path fill="#F2D864" d="M110.667 111.02l-.002-.001-.003-.001h-.001l-.001-.001-.001-.001-.001-.001h-.001l-.001-.001-.001-.001-.001-.001h-.001l-.001-.001c-.001.001-.001-.001-.002-.001.001-.001-.001-.001-.002-.001l-.001-.001h-.001l-.001-.001-.001-.001-.002-.001c-.001.001-.001-.001-.003-.001l-.001-.001c.001-.001-.001-.001-.002-.001l-.001-.001-.004-.001-.004-.001-.002-.001-.002-.001-.002-.001-.002-.001c-.003 0-.003 0-.002-.001l-.001-.001-.002-.001h-.001a.647.647 0 0 0-.188-.037H110.416l-.002-.001h-.002-.003-.006-.001-.002-.004.003a3.028 3.028 0 0 1-3.02-3V89.365h2.586c.365-.009.661-.285.661-.648a.648.648 0 0 0-.402-.6l-12.38-8.544a.65.65 0 0 0-.737 0l-12.476 8.61a.65.65 0 0 0 .368 1.182h2.573l.002 18.599c.013 2.329 1.885 4.231 4.264 4.289a.68.68 0 0 0 .078.004h18.492a.649.649 0 0 0 .438-.18l.001-.001.005-.005.003-.003.001-.001.001-.001.001-.001.001-.001.001-.001.001-.001c.003-.001.001-.001.002-.002l.001-.001.001-.001.001-.001a.647.647 0 0 0 .183-.447v-.01a.653.653 0 0 0-.382-.58z"/></svg>
