<svg xmlns="http://www.w3.org/2000/svg" viewBox="0 0 138.43 152.26">
    <path d="M17.44 42.68c-.01.03.01 33.29 0 36.05 0 .26.04.53.17.75.4.69 1.28.99 1.96.56.36-.25.66-.59 1-.86a35.191 35.191 0 014.86-3.37c2.75-1.59 5.63-2.74 8.54-3.56.43-.13.87-.25 1.32-.37.25-.06.49-.13.74-.19 2.51-.57 5.37-.91 8.78-1.08.18-.01-.18.01 0 .01 14.58-.25 26.33-12.11 26.37-26.75.03-14.83-11.96-26.87-26.77-26.89-14.47-.04-26.38 11.38-26.97 25.7z" fill="#5fc8d7"/>
    <path d="M56.75 131.62c.02 0 28.82-16.65 31.21-18.02.23-.13.43-.3.57-.53.4-.7.21-1.61-.5-1.98-.39-.18-.84-.28-1.25-.43-.44-.17-.88-.34-1.31-.53-.88-.37-1.75-.77-2.59-1.21-.49-.25-.96-.51-1.44-.79-2.75-1.59-5.19-3.5-7.36-5.62-.33-.3-.65-.62-.98-.96-.17-.18-.36-.36-.53-.54-1.75-1.89-3.47-4.19-5.33-7.06-.09-.15.11.15.01-.01-7.5-12.49-23.65-16.74-36.35-9.45-12.85 7.39-17.28 23.79-9.9 36.63 7.21 12.54 23.05 17.15 35.75 10.5z" fill="#fab117"/>
    <path d="M114.11 53.11c-.02-.03-28.83-16.65-31.22-18.03-.22-.13-.47-.23-.74-.23-.8 0-1.5.62-1.47 1.42.04.43.18.87.25 1.29l.21 1.41c.12.95.2 1.9.25 2.85.03.55.04 1.1.04 1.64 0 3.18-.43 6.24-1.19 9.18-.1.44-.21.88-.34 1.33-.07.24-.13.49-.21.74-.76 2.47-1.9 5.1-3.45 8.14-.08.16.08-.17-.01-.01-7.07 12.74-2.68 28.85 9.99 36.21 12.82 7.44 29.24 3.07 36.67-9.74 7.26-12.5 3.33-28.52-8.78-36.2z" fill="#f16651"/>
</svg>
