<svg width="78" height="78" xmlns="http://www.w3.org/2000/svg"><g fill-rule="nonzero" fill="none"><path d="M6.462 59.815c-.575.265-.938.84-.938 1.468 0 .634.363 1.203.932 1.467l31.431 14.715c.423.198.873.297 1.329.304V44.916c-.47 0-.932.1-1.369.304L6.462 59.815z" fill="#F27923"/><path d="M39.222 44.923v32.853c.49.006.972-.093 1.422-.305l31.338-14.674a1.62 1.62 0 00-.006-2.935L40.584 45.227a3.247 3.247 0 00-1.362-.304z" fill="#F5A730"/><path d="M5.524 16.83c0 .64.363 1.203.932 1.467L37.887 33.01c.423.198.873.298 1.329.304.396.007.8-.06 1.176-.205.298-.138.245-.112.88-.41 3.245-1.507 1.097-.502 30.704-14.363a1.62 1.62 0 00-.007-2.935L40.577.767a3.247 3.247 0 00-2.736 0L6.456 15.355a1.66 1.66 0 00-.932 1.474z" fill="#20AD92"/><path d="M39.222 35.173v9.756c-.469 0-.932.1-1.368.304L6.47 59.822c-.575.264-.939.84-.939 1.467V17.933v-1.097c0 .635.364 1.203.932 1.474L37.9 33.024c.423.199.873.298 1.329.304.397.007.8-.059 1.177-.204l-.053.026c-.985.45-1.13.899-1.13 2.023z" fill="#D0D1D1"/></g></svg>